<svg width="124" height="124" viewBox="0 0 124 124" fill="none" xmlns="http://www.w3.org/2000/svg">
<path d="M37.667 98.9997C30.8837 98.9997 25.3953 104.55 25.3953 111.333C25.3953 118.116 30.8837 123.666 37.667 123.666C44.4503 123.666 50.0003 118.116 50.0003 111.333C50.0003 104.55 44.4503 98.9997 37.667 98.9997ZM0.666992 0.333038V12.6664H13.0003L35.2003 59.4714L26.8753 74.5797C25.8887 76.3064 25.3337 78.3414 25.3337 80.4997C25.3337 87.283 30.8837 92.833 37.667 92.833H111.667V80.4997H40.257C39.3937 80.4997 38.7153 79.8214 38.7153 78.958L38.9003 78.218L44.4503 68.1664H90.392C95.017 68.1664 99.087 65.638 101.184 61.8147L123.26 21.793C123.754 20.9297 124 19.8814 124 18.833C124 15.4414 121.225 12.6664 117.834 12.6664H26.6287L20.832 0.333038H0.666992ZM99.3337 98.9997C92.5503 98.9997 87.062 104.55 87.062 111.333C87.062 118.116 92.5503 123.666 99.3337 123.666C106.117 123.666 111.667 118.116 111.667 111.333C111.667 104.55 106.117 98.9997 99.3337 98.9997Z" fill="#FF8100"/>
</svg>
